nColumns=19
nRows=50
DataType=double
version=3
OpenSimVersion=4.1
endheader
time	ground_force_calcn_l_vx	ground_force_calcn_l_vy	ground_force_calcn_l_vz	ground_force_calcn_l_px	ground_force_calcn_l_py	ground_force_calcn_l_pz	ground_force_calcn_l_mx	ground_force_calcn_l_my	ground_force_calcn_l_mz	ground_force_calcn_r_vx	ground_force_calcn_r_vy	ground_force_calcn_r_vz	ground_force_calcn_r_px	ground_force_calcn_r_py	ground_force_calcn_r_pz	ground_force_calcn_r_mx	ground_force_calcn_r_my	ground_force_calcn_r_mz
0.997519	-13.9276	382.858	-1.09329	-0.244299	-2.7117e-17	0.204314	0.244389	-6.71806	0.0191841	-15.1944	381.008	-1.8586	-0.212264	-2.35729e-17	-0.137817	-0.19051	4.77714	-0.0233035
1.00749	-15.4732	388.343	0.156022	-0.243733	-2.70605e-17	0.204025	0.251897	-6.32204	-0.00253997	-14.3072	386.644	-2.72628	-0.211662	-2.35093e-17	-0.136932	-0.184013	4.97284	-0.0350641
1.01747	-16.8003	394.104	1.34365	-0.243294	-2.70167e-17	0.203821	0.252673	-5.92721	-0.0202081	-13.3698	393.093	-3.55474	-0.211067	-2.34464e-17	-0.136139	-0.17723	5.21085	-0.0471218
1.02744	-17.8607	399.892	2.46783	-0.242946	-2.69819e-17	0.203728	0.24762	-5.54411	-0.034214	-12.4529	400.079	-4.36716	-0.210474	-2.33838e-17	-0.135431	-0.169696	5.45187	-0.0595112
1.03742	-18.6082	405.489	3.51662	-0.242676	-2.69548e-17	0.203772	0.237997	-5.18618	-0.0449773	-11.6485	407.246	-5.18506	-0.209898	-2.33231e-17	-0.134814	-0.162597	5.68459	-0.0723763
1.04739	-19.0308	410.718	4.47391	-0.242496	-2.69367e-17	0.20394	0.225058	-4.85716	-0.0529086	-11.044	414.206	-6.04323	-0.209348	-2.32654e-17	-0.134284	-0.157426	5.90425	-0.0861426
1.05737	-19.1202	415.445	5.31499	-0.242379	-2.69251e-17	0.20421	0.210089	-4.56482	-0.0584	-10.6962	420.607	-6.947	-0.208827	-2.32109e-17	-0.133837	-0.154643	6.08103	-0.100438
1.06734	-18.8946	419.624	6.04339	-0.242281	-2.69151e-17	0.204583	0.194812	-4.32651	-0.0623101	-10.6451	426.148	-7.90583	-0.208329	-2.31591e-17	-0.133474	-0.154775	6.19597	-0.114947
1.07732	-18.3922	423.273	6.65591	-0.242186	-2.69051e-17	0.205038	0.180377	-4.15115	-0.0652762	-10.9308	430.629	-8.91661	-0.207867	-2.31113e-17	-0.133187	-0.158488	6.24382	-0.129285
1.0873	-17.6557	426.423	7.13982	-0.242099	-2.6896e-17	0.205534	0.167022	-4.03393	-0.0675422	-11.541	433.976	-9.98165	-0.207473	-2.30708e-17	-0.132962	-0.165506	6.22352	-0.143144
1.09727	-16.7259	429.133	7.49653	-0.242017	-2.68873e-17	0.206038	0.155044	-3.97793	-0.0694906	-12.4203	436.21	-11.0838	-0.207137	-2.30364e-17	-0.132784	-0.174605	6.13224	-0.155816
1.10725	-15.6584	431.447	7.75814	-0.241902	-2.6875e-17	0.20654	0.144894	-3.99236	-0.0717894	-13.516	437.41	-12.1845	-0.206853	-2.30075e-17	-0.132639	-0.184599	5.97405	-0.166414
1.11722	-14.4973	433.405	7.95033	-0.241724	-2.68559e-17	0.207026	0.136577	-4.08306	-0.0748991	-14.7295	437.702	-13.2216	-0.206637	-2.29855e-17	-0.132519	-0.19387	5.76103	-0.174023
1.1272	-13.2679	435.063	8.08757	-0.241517	-2.68339e-17	0.207472	0.129535	-4.24753	-0.0789592	-15.9401	437.246	-14.1539	-0.206501	-2.29715e-17	-0.132421	-0.200792	5.50784	-0.178292
1.13717	-12.0197	436.507	8.16926	-0.241312	-2.68123e-17	0.207844	0.123141	-4.47198	-0.0836935	-17.0597	436.214	-14.973	-0.206449	-2.29662e-17	-0.13235	-0.204931	5.24006	-0.179865
1.14715	-10.8118	437.837	8.21404	-0.241075	-2.67873e-17	0.20814	0.117478	-4.75744	-0.089252	-18.0388	434.793	-15.6685	-0.206476	-2.29693e-17	-0.132318	-0.206655	4.98104	-0.1795
1.15712	-9.68041	439.14	8.22584	-0.240773	-2.67552e-17	0.208358	0.112235	-5.09139	-0.0953705	-18.8168	433.152	-16.2198	-0.20656	-2.29782e-17	-0.132315	-0.205616	4.73315	-0.177237
1.1671	-8.65311	440.482	8.20033	-0.240435	-2.67192e-17	0.208483	0.10709	-5.45134	-0.101486	-19.3435	431.453	-16.6282	-0.206682	-2.2991e-17	-0.132337	-0.202145	4.5088	-0.17377
1.17707	-7.75142	441.915	8.13483	-0.240111	-2.66845e-17	0.208504	0.101966	-5.81316	-0.107009	-19.5864	429.842	-16.9069	-0.206862	-2.30103e-17	-0.132387	-0.197511	4.33457	-0.17049
1.18705	-6.96972	443.482	8.02579	-0.239816	-2.66528e-17	0.208432	0.0965818	-6.14547	-0.111216	-19.5019	428.424	-17.0395	-0.207116	-2.30381e-17	-0.132459	-0.192261	4.22367	-0.167985
1.19702	-6.28246	445.217	7.882	-0.239542	-2.6623e-17	0.208318	0.0908465	-6.43799	-0.113976	-19.0411	427.288	-16.9936	-0.2074	-2.30693e-17	-0.132537	-0.186493	4.18497	-0.16644
1.207	-5.68081	447.106	7.69459	-0.239316	-2.6598e-17	0.208184	0.0848103	-6.67496	-0.114875	-18.1866	426.497	-16.7667	-0.207668	-2.3099e-17	-0.132612	-0.18041	4.23084	-0.166326
1.21697	-5.17306	449.105	7.42042	-0.239168	-2.65808e-17	0.208004	0.07872	-6.83417	-0.112919	-16.9435	426.059	-16.373	-0.207926	-2.31282e-17	-0.132679	-0.173692	4.36763	-0.167843
1.22695	-4.79775	451.195	7.04999	-0.239112	-2.65734e-17	0.207769	0.0735426	-6.91616	-0.108066	-15.3487	425.936	-15.8175	-0.208189	-2.31581e-17	-0.132724	-0.165626	4.59623	-0.170686
1.23692	-4.6056	453.36	6.60792	-0.239111	-2.65713e-17	0.20748	0.0702869	-6.91881	-0.100845	-13.4826	426.091	-15.0889	-0.208417	-2.3184e-17	-0.132745	-0.154772	4.89126	-0.17321
1.2469	-4.6564	455.539	6.10662	-0.239135	-2.65717e-17	0.20712	0.0699168	-6.84002	-0.0916922	-11.4448	426.476	-14.2046	-0.208583	-2.32028e-17	-0.132765	-0.140443	5.23344	-0.17431
1.25687	-4.96581	457.643	5.54781	-0.239212	-2.65776e-17	0.206683	0.0725397	-6.68517	-0.0810415	-9.34432	426.982	-13.2017	-0.208706	-2.32161e-17	-0.132797	-0.122652	5.60449	-0.173284
1.26685	-5.53783	459.56	4.93778	-0.239374	-2.65926e-17	0.206157	0.0778199	-6.45792	-0.0693877	-7.28188	427.473	-12.1016	-0.208844	-2.32302e-17	-0.13283	-0.101726	5.97167	-0.169055
1.27682	-6.35766	461.186	4.29706	-0.239604	-2.66152e-17	0.205555	0.0850959	-6.17288	-0.0575153	-5.3457	427.852	-10.9276	-0.209012	-2.32468e-17	-0.132884	-0.0787459	6.30255	-0.160971
1.2868	-7.39796	462.441	3.624	-0.239892	-2.66444e-17	0.20488	0.0934058	-5.83872	-0.0457562	-3.60838	428.022	-9.72098	-0.209185	-2.3263e-17	-0.132974	-0.0554342	6.57555	-0.14934
1.29677	-8.62544	463.252	2.88093	-0.240251	-2.66813e-17	0.204121	0.10178	-5.46637	-0.033995	-2.1115	427.905	-8.54162	-0.209359	-2.32786e-17	-0.133095	-0.0334659	6.78203	-0.13538
1.30675	-9.99038	463.575	2.0369	-0.240672	-2.67253e-17	0.203286	0.109272	-5.07044	-0.0222789	-0.885209	427.432	-7.44775	-0.209563	-2.32975e-17	-0.133247	-0.0143629	6.93525	-0.120843
1.31672	-11.4584	463.395	1.07452	-0.241143	-2.67749e-17	0.202396	0.115493	-4.67072	-0.0108305	0.0593136	426.566	-6.44159	-0.209768	-2.33166e-17	-0.133441	0.000979832	7.04667	-0.106412
1.3267	-12.9903	462.717	0.0109361	-0.241635	-2.68269e-17	0.201503	0.120682	-4.29868	-0.000101597	0.730545	425.272	-5.50579	-0.209925	-2.33304e-17	-0.133678	0.0122124	7.10922	-0.0920398
1.33667	-14.5402	461.558	-1.15492	-0.242123	-2.68787e-17	0.200628	0.12509	-3.97081	0.00993587	1.15567	423.532	-4.64095	-0.210028	-2.33382e-17	-0.133961	0.0194586	7.13119	-0.0781418
1.34665	-16.0521	459.956	-2.42256	-0.242605	-2.69299e-17	0.199785	0.128817	-3.69114	0.019441	1.3517	421.335	-3.84366	-0.210109	-2.33439e-17	-0.134291	0.0228216	7.1137	-0.0648953
1.35663	-17.463	457.966	-3.77553	-0.243073	-2.69796e-17	0.199005	0.132244	-3.4681	0.0285914	1.34737	418.719	-3.10038	-0.210181	-2.33487e-17	-0.134669	0.0227105	7.05772	-0.0522584
1.3666	-18.7498	455.641	-5.18317	-0.243496	-2.70244e-17	0.198297	0.135888	-3.30223	0.0375647	1.16544	415.764	-2.38404	-0.210232	-2.33511e-17	-0.135099	0.0194862	6.95158	-0.0398612
1.37658	-19.9006	453.029	-6.62007	-0.243862	-2.70627e-17	0.197665	0.140333	-3.19463	0.0466829	0.828959	412.567	-1.65527	-0.210255	-2.33504e-17	-0.135582	0.0136595	6.79824	-0.0272754
1.38655	-20.9137	450.2	-8.08413	-0.244193	-2.7097e-17	0.197087	0.145243	-3.12658	0.0561433	0.368715	409.244	-0.916844	-0.210293	-2.33513e-17	-0.136118	0.00595745	6.61229	-0.0148138
1.39653	-21.8013	447.24	-9.54668	-0.244493	-2.71278e-17	0.196552	0.150056	-3.0783	0.0657087	-0.190191	405.9	-0.158028	-0.210371	-2.33566e-17	-0.136711	-0.002999	6.40039	-0.00249185
1.4065	-22.5894	444.211	-10.9731	-0.244749	-2.71538e-17	0.196046	0.154645	-3.04102	0.0751207	-0.823259	402.608	0.634643	-0.210458	-2.33628e-17	-0.137364	-0.0126259	6.17461	0.00973323
1.41648	-23.2836	441.2	-12.3265	-0.244947	-2.71734e-17	0.195572	0.159069	-3.0142	0.0842125	-1.49049	399.408	1.48279	-0.210534	-2.33678e-17	-0.138071	-0.022192	5.94679	0.0220773
1.42645	-23.8949	438.275	-13.5994	-0.245117	-2.71899e-17	0.195113	0.163103	-2.99159	0.0928269	-2.12483	396.334	2.38331	-0.210634	-2.33754e-17	-0.138817	-0.0307013	5.72657	0.0344361
1.43643	-24.4294	435.492	-14.8004	-0.245278	-2.72056e-17	0.194662	0.166596	-2.96984	0.100931	-2.68214	393.408	3.31539	-0.210809	-2.33914e-17	-0.139578	-0.0376986	5.52952	0.0465994
1.4464	-24.9203	432.898	-15.9404	-0.24544	-2.72217e-17	0.194193	0.168736	-2.93116	0.107933	-3.13046	390.634	4.25522	-0.21105	-2.34146e-17	-0.140332	-0.042997	5.36537	0.0584455
1.45638	-25.3719	430.541	-17.0296	-0.245577	-2.72351e-17	0.193725	0.169747	-2.88047	0.113934	-3.4431	388.034	5.19559	-0.211347	-2.34442e-17	-0.141066	-0.04646	5.23599	0.0701075
1.46635	-25.7851	428.457	-18.0881	-0.245705	-2.72479e-17	0.193278	0.169881	-2.82281	0.11917	-3.61417	385.64	6.13019	-0.211725	-2.34827e-17	-0.141788	-0.0481892	5.14188	0.0817362
1.47633	-26.139	426.651	-19.1487	-0.245878	-2.72658e-17	0.192856	0.1687	-2.75359	0.123585	-3.64475	383.472	7.04581	-0.212234	-2.35356e-17	-0.142493	-0.0483827	5.09045	0.0935305
1.4863	-26.4004	425.12	-20.224	-0.246105	-2.729e-17	0.192474	0.165977	-2.67268	0.127146	-3.51742	381.568	7.93055	-0.212878	-2.36035e-17	-0.143171	-0.0468867	5.08624	0.105713
